<svg width="814" height="814" viewBox="0 0 814 814" fill="none" xmlns="http://www.w3.org/2000/svg">
<g filter="url(#filter0_b_106_25)">
<path d="M814 407C814 182.22 631.78 0 407 0C182.22 0 0 182.22 0 407C0 631.78 182.22 814 407 814C631.78 814 814 631.78 814 407Z" fill="url(#paint0_radial_106_25)"/>
<path d="M407 1.5C630.951 1.5 812.5 183.049 812.5 407C812.5 630.951 630.951 812.5 407 812.5C183.049 812.5 1.5 630.951 1.5 407C1.5 183.049 183.049 1.5 407 1.5Z" stroke="url(#paint1_radial_106_25)" stroke-width="3"/>
<path d="M407 1.5C630.951 1.5 812.5 183.049 812.5 407C812.5 630.951 630.951 812.5 407 812.5C183.049 812.5 1.5 630.951 1.5 407C1.5 183.049 183.049 1.5 407 1.5Z" stroke="url(#paint2_radial_106_25)" stroke-width="3"/>
<path d="M407 1.5C630.951 1.5 812.5 183.049 812.5 407C812.5 630.951 630.951 812.5 407 812.5C183.049 812.5 1.5 630.951 1.5 407C1.5 183.049 183.049 1.5 407 1.5Z" stroke="url(#paint3_linear_106_25)" stroke-width="3"/>
</g>
<path d="M440.465 260C430.785 260.313 422.144 260.469 414.543 260.469C407.232 260.469 397.775 260.302 386.206 260L386.541 266.372L397.976 269.725C399.209 270.016 400.358 270.59 401.33 271.402C401.721 271.818 402.023 272.309 402.219 272.845C402.415 273.381 402.501 273.951 402.47 274.521C402.34 276.673 401.864 278.79 401.062 280.792C400.156 283.408 398.882 286.996 397.306 291.456L379.867 337.902L379.297 339.478L378.694 341.055L368.365 368.553C366.755 373.047 365.246 377.407 363.804 381.632C362.53 377.407 361.121 372.98 359.579 368.419L344.354 324.153L343.582 321.906L342.777 319.659L333.052 291.355L332.214 288.974C331.946 288.203 331.711 287.465 331.476 286.761L330.705 284.481C330.269 283.173 329.9 281.999 329.565 280.96C328.887 278.922 328.492 276.8 328.391 274.655C328.329 274.052 328.392 273.443 328.577 272.866C328.761 272.289 329.063 271.756 329.464 271.301C330.428 270.455 331.576 269.847 332.817 269.524L338.72 267.814L340.899 267.21L343.046 266.573L344.588 266.137L344.354 263.924L344.052 260.805V260.034H342.61C329.196 260.302 315.547 260.447 301.663 260.469C290.764 260.469 279.899 260.302 269 260L269.469 266.103L281.14 269.457C283.846 270.207 286.279 271.72 288.149 273.817C290.533 277.26 292.377 281.049 293.615 285.051L298.042 297.526L298.846 299.773L299.651 302.053L309.007 328.345L309.779 330.525L310.55 332.671L345.125 429.923L357.734 428.716L390.934 347.024L391.571 345.448L392.208 343.905L416.689 283.542C417.946 280.259 419.554 277.122 421.485 274.185C423.169 272.002 425.526 270.434 428.192 269.725L441.136 266.003L440.465 260Z" fill="#059669"/>
<path d="M459.441 500.387H457.865L458.234 499.649L459.441 500.387Z" fill="#059669"/>
<path d="M543.614 431.171C543.686 439.831 541.265 448.329 536.639 455.651C531.437 463.506 524.421 469.994 516.183 474.565C505.701 480.348 494.39 484.477 482.647 486.805C476.821 488.067 470.933 489.03 465.008 489.689L463.029 489.924L461.051 490.125C456.87 490.55 452.51 490.852 447.972 491.031H444.619H440.997H436.972L436.771 488.885L436.604 486.939L436.402 484.961L436 480.467C446.853 479.962 457.627 478.366 468.16 475.705L469.602 475.303L470.307 475.068C471.078 474.867 471.748 474.632 472.486 474.397C479.304 472.377 485.781 469.348 491.702 465.41C496.642 462.221 500.694 457.833 503.479 452.655C506.265 447.477 507.693 441.678 507.631 435.798C507.89 428.768 505.496 421.897 500.924 416.549C500.536 416.089 500.122 415.653 499.683 415.241L498.409 414.034L497.436 413.229C490.105 407.614 481.044 404.732 471.816 405.08C466.927 405.05 462.049 405.533 457.261 406.522L456.557 395.824C461.519 395.261 466.437 394.365 471.279 393.142L473.727 392.471L476.041 391.733C480.823 390.258 485.347 388.052 489.455 385.194C492.941 382.782 495.768 379.537 497.677 375.753C499.587 371.969 500.519 367.767 500.388 363.53C500.513 360.063 499.875 356.611 498.519 353.418C497.163 350.225 495.122 347.369 492.54 345.052C486.973 340.223 479.784 337.683 472.419 337.943C461.915 338.283 451.687 341.395 442.774 346.964L437.945 337.641C452.69 327.168 470.4 321.692 488.483 322.013C502.232 322.013 513.41 325.076 522.018 331.202C526.749 334.413 530.47 338.902 532.749 344.147C533.051 344.851 533.319 345.589 533.554 346.326C533.789 347.064 534.023 347.97 534.191 348.808C534.67 351.011 534.906 353.26 534.895 355.515C534.895 367.342 528.758 377.112 516.484 384.825L513.869 386.367C513.064 386.837 512.226 387.306 511.354 387.742C505.525 390.672 499.441 393.063 493.177 394.885V395.388C497.854 395.365 502.527 395.667 507.162 396.294L508.872 396.596C509.476 396.596 510.046 396.797 510.616 396.898C517.7 398.076 524.442 400.789 530.368 404.845C533.727 407.169 536.58 410.151 538.753 413.609C540.926 417.068 542.375 420.932 543.011 424.967C543.011 425.637 543.212 426.308 543.313 426.979C543.413 427.649 543.313 428.253 543.313 428.924C543.313 429.594 543.614 430.433 543.614 431.171Z" fill="#059669"/>
<path d="M339.729 258.023H341.607H343.485L357.335 229.854L415.854 258.627H419.476H423.131L358.811 227.003L386.209 171.301L384.733 170.564L383.224 169.826L355.826 225.528L222.591 160L221.853 161.509L221.115 163.018L354.317 228.278L339.729 258.023Z" fill="#F2F1F1"/>
<path d="M468.907 461.549L485.674 427.443C485.404 426.812 485.078 426.206 484.702 425.632C484.363 425.086 483.994 424.56 483.595 424.056L464.145 463.594C464.949 463.292 465.721 462.991 466.458 462.655C467.293 462.329 468.11 461.96 468.907 461.549Z" fill="#F2F1F1"/>
<path d="M611.8 171.033L610.291 170.295L608.782 169.557L537.453 314.597L449.657 271.404L499.021 171.033L497.512 170.295L496.003 169.557L446.639 269.928L442.515 267.883L442.749 269.861L442.984 271.84L445.164 272.913L443.521 276.266L440.368 282.638L401.97 360.708L393.352 356.449L392.715 358.025L392.078 359.568L400.495 363.726L357.335 451.555L348.348 447.128L325.812 436.062L269.506 408.261L296.335 353.431L295.563 351.251L294.758 349.071L266.388 406.785L222.456 385.189L221.719 386.698L220.981 388.207L264.879 409.804L202 537.673L203.509 538.411L204.985 539.149L267.863 411.279L327.489 440.589L341.976 447.732L355.86 454.439L314.947 537.64L316.456 538.378L317.965 539.115L358.878 455.915L415.888 484.017V482.072L415.72 480.094L360.387 452.896L403.58 365.101L446.17 386.061L449.121 385.658L451.971 385.189L405.022 362.083L416.894 337.971L420.515 330.627L448.215 274.422L535.977 317.716L528.197 333.511C528.566 334.048 528.935 334.584 529.27 335.154C529.645 335.7 529.981 336.272 530.276 336.865L538.995 319.192L589.298 343.941L590.036 342.431L590.774 340.922L540.471 316.173L611.8 171.033Z" fill="#F2F1F1"/>
<path d="M277.991 301.619L277.186 299.339L222.591 272.511L221.853 274.02L221.115 275.529L278.796 303.9L277.991 301.619Z" fill="#F2F1F1"/>
<path d="M348.414 336.261L349.186 338.508L361.627 344.645L362.231 343.069L362.801 341.459L347.61 334.014L348.414 336.261Z" fill="#F2F1F1"/>
<path d="M543.59 431.367V432.239C543.59 432.876 543.59 433.48 543.59 434.083L589.399 456.619L590.137 455.11L590.875 453.601L543.623 430.361C543.59 430.696 543.59 431.032 543.59 431.367Z" fill="#F2F1F1"/>
<path d="M455.66 499.946L452.609 500.282L449.758 500.55H449.356L448.149 499.946L447.78 500.684L445.835 500.852L427.692 537.741L429.201 538.478L430.71 539.216L449.658 500.684L589.332 569.364L590.07 567.855L590.807 566.346L455.694 499.913L455.66 499.946Z" fill="#F2F1F1"/>
<path d="M244.84 638.9H251.045V684.16H271.12V690H244.84V638.9ZM277.704 638.9H283.909V690H277.704V638.9ZM290.488 644.74V638.9H322.973V644.74H309.833V690H303.628V644.74H290.488ZM332.962 690V684.16H358.731V690H332.962ZM332.962 644.74V638.9H358.731V644.74H332.962ZM332.962 665.18V659.34H357.271V665.18H332.962ZM329.531 638.9H335.736V690H329.531V638.9ZM386.443 644.74V638.9H418.928V644.74H405.788V690H399.583V644.74H386.443ZM423.106 674.67L425.296 668.83H447.926L450.116 674.67H423.106ZM436.465 650.434L427.851 670.728L427.267 672.042L419.675 690H412.74L436.465 636.345L460.19 690H453.255L445.809 672.48L445.225 671.02L436.465 650.434ZM471.297 662.99V659.559H479.546C481.25 659.559 482.783 659.267 484.145 658.683C485.508 658.099 486.579 657.247 487.357 656.128C488.136 655.009 488.525 653.646 488.525 652.04C488.525 649.607 487.674 647.733 485.97 646.419C484.267 645.056 482.126 644.375 479.546 644.375H472.611V684.525H480.276C482.466 684.525 484.389 684.136 486.043 683.357C487.747 682.578 489.061 681.459 489.985 679.999C490.959 678.539 491.445 676.763 491.445 674.67C491.445 673.113 491.178 671.726 490.642 670.509C490.107 669.292 489.328 668.27 488.306 667.443C487.333 666.616 486.165 666.007 484.802 665.618C483.44 665.18 481.931 664.961 480.276 664.961H471.297V661.53H480.276C482.758 661.53 485.046 661.798 487.138 662.333C489.231 662.868 491.056 663.696 492.613 664.815C494.219 665.886 495.46 667.273 496.336 668.976C497.212 670.679 497.65 672.699 497.65 675.035C497.65 678.393 496.872 681.191 495.314 683.43C493.806 685.62 491.737 687.275 489.109 688.394C486.53 689.465 483.586 690 480.276 690H466.406V638.9H479.546C482.612 638.9 485.265 639.362 487.503 640.287C489.791 641.212 491.567 642.623 492.832 644.521C494.098 646.37 494.73 648.755 494.73 651.675C494.73 654.06 494.098 656.104 492.832 657.807C491.567 659.51 489.791 660.8 487.503 661.676C485.265 662.552 482.612 662.99 479.546 662.99H471.297ZM507.112 638.9H513.317V684.16H533.392V690H507.112V638.9ZM543.408 690V684.16H569.177V690H543.408ZM543.408 644.74V638.9H569.177V644.74H543.408ZM543.408 665.18V659.34H567.717V665.18H543.408ZM539.977 638.9H546.182V690H539.977V638.9Z" fill="white"/>
<defs>
<filter id="filter0_b_106_25" x="-42" y="-42" width="898" height="898" filterUnits="userSpaceOnUse" color-interpolation-filters="sRGB">
<feFlood flood-opacity="0" result="BackgroundImageFix"/>
<feGaussianBlur in="BackgroundImageFix" stdDeviation="21"/>
<feComposite in2="SourceAlpha" operator="in" result="effect1_backgroundBlur_106_25"/>
<feBlend mode="normal" in="SourceGraphic" in2="effect1_backgroundBlur_106_25" result="shape"/>
</filter>
<radialGradient id="paint0_radial_106_25" cx="0" cy="0" r="1" gradientUnits="userSpaceOnUse" gradientTransform="translate(7.32173 24.2181) rotate(44.0741) scale(1105.43 1767.98)">
<stop stop-color="#36B47D" stop-opacity="0.4"/>
<stop offset="1" stop-color="white" stop-opacity="0"/>
</radialGradient>
<radialGradient id="paint1_radial_106_25" cx="0" cy="0" r="1" gradientUnits="userSpaceOnUse" gradientTransform="translate(7.32173 24.2181) rotate(44.0741) scale(1105.43 1767.98)">
<stop stop-color="#D8D8D8" stop-opacity="0"/>
<stop offset="1" stop-color="#D8D8D8"/>
</radialGradient>
<radialGradient id="paint2_radial_106_25" cx="0" cy="0" r="1" gradientUnits="userSpaceOnUse" gradientTransform="translate(11.1979 789.109) rotate(-44.0635) scale(1099.84 1757.19)">
<stop stop-color="#D8D8D8" stop-opacity="0"/>
<stop offset="1" stop-color="#D8D8D8"/>
</radialGradient>
<linearGradient id="paint3_linear_106_25" x1="15.0741" y1="22.2" x2="957.05" y2="452.57" gradientUnits="userSpaceOnUse">
<stop stop-color="#36B47D" stop-opacity="0.8"/>
<stop offset="1" stop-color="#36B47D" stop-opacity="0"/>
</linearGradient>
</defs>
</svg>
